<svg width="66" height="73" viewBox="0 0 66 73" fill="none" xmlns="http://www.w3.org/2000/svg">
<path d="M49.7719 64.834C48.1693 65.7143 46.8376 66.4366 45.5284 67.1815C42.436 68.9422 39.3887 70.7705 36.2737 72.4409C34.8065 73.2309 33.3845 72.5312 32.0753 71.7411C29.9083 70.4094 27.8091 69.0099 25.597 67.791C22.5949 66.1432 21.534 63.5022 22.8658 60.3421C24.3556 61.2224 25.8228 62.1028 27.29 62.9831C29.6375 64.36 31.8947 65.8949 34.3551 67.0235C35.1 67.3621 36.4092 66.5721 37.4023 66.1884C38.2149 65.8723 38.9373 65.3306 39.8853 64.7889C39.5693 64.4503 39.3436 64.044 38.9824 63.7957C37.4475 62.8025 35.8674 61.8545 34.2874 60.9064C32.8427 60.0261 31.3755 59.2135 29.9535 58.3332C28.3283 57.3174 26.7482 56.2791 25.123 55.2634C24.8973 55.1279 24.5813 55.0828 24.4233 54.9022C23.7912 54.1573 22.9786 53.4576 22.6852 52.5773C22.3918 51.7195 22.5949 50.6812 22.6852 49.7332C22.7755 48.7174 22.4595 47.9274 21.8726 47.1148C19.9088 44.3835 20.2474 42.3069 23.0689 40.2302C25.3036 38.605 29.1409 40.2979 29.6149 43.0292C29.9761 45.0833 29.9309 46.9568 27.764 48.2434C27.3802 48.4691 27.3802 50.2297 27.8317 50.7489C28.8023 51.8775 30.1341 52.7127 31.3981 53.5704C32.617 54.4056 33.9036 55.0828 35.1677 55.8502C37.2218 57.1143 39.2533 58.4009 41.3073 59.665C43.0003 60.7259 44.6706 61.8319 46.3635 62.8702C47.0407 63.2765 47.7856 63.5925 48.4853 63.9763C48.8465 64.1794 49.1851 64.4503 49.7945 64.9017L49.7719 64.834ZM25.1682 46.6633C26.7482 46.6633 28.0123 45.6024 27.8543 44.2481C27.6963 42.8035 26.8836 41.6748 25.3262 41.7426C23.4527 41.8328 22.8884 42.5777 22.6852 44.3609C22.5498 45.5347 23.859 46.6859 25.1682 46.6633Z" fill="black"/>
<path d="M43.7 12.6241C42.4133 11.9018 41.2396 11.2698 40.0884 10.5701C38.8243 9.8026 37.5829 8.98999 36.3414 8.15482C35.5062 7.59051 34.671 7.02621 33.881 6.39418C32.5718 5.33329 31.1498 5.22043 29.7277 6.12332C28.8022 6.7102 27.8542 7.2745 26.6804 7.99681C28.1251 9.03514 29.4794 10.0057 30.8563 10.9312C32.0527 11.7438 33.249 12.5338 34.4453 13.3239C35.1902 13.8205 35.8899 14.3171 36.6574 14.7911C38.3729 15.852 40.0658 16.9129 41.8265 17.906C43.0002 18.5606 43.858 20.389 43.5645 21.6982C43.2485 23.1202 43.4968 24.452 44.5351 25.5581C46.2732 27.4316 45.3703 31.0657 43.1131 32.3297C41.4201 33.2778 39.9304 33.0521 38.4858 32.1492C36.7477 31.0883 36.0705 29.3728 36.4317 27.409C36.5897 26.5512 37.1088 25.6483 37.7183 24.9938C38.734 23.9103 38.734 23.2105 38.0343 21.8562C37.1991 20.2084 35.5514 19.6667 34.2647 18.6961C32.7298 17.5223 30.9692 16.5969 29.3214 15.5811C27.5382 14.4751 25.7324 13.3916 23.9492 12.2856C23.2495 11.8567 22.5949 11.3375 21.9177 10.8635C20.5408 9.93803 19.1413 9.01257 17.787 8.06454C17.5612 7.90653 17.4484 7.56794 17.2227 7.22936C20.6536 5.51386 24.0395 3.82094 27.4028 2.12802C28.3959 1.63143 29.3891 1.08969 30.3146 0.502814C31.3303 -0.12921 32.3235 -0.196923 33.3393 0.480246C35.1451 1.654 36.9508 2.80519 38.7792 3.97895C40.3367 4.97213 41.9619 5.85245 43.3839 7.00364C43.9708 7.47765 44.3771 8.47083 44.3997 9.23829C44.4223 10.2766 43.9934 11.3375 43.7 12.6693V12.6241ZM38.418 28.2893C38.418 29.7565 39.4338 30.8625 40.7656 30.8625C41.9619 30.8625 43.5419 29.5082 43.5871 28.4247C43.6322 27.0478 42.4359 26.0095 40.8784 26.0095C39.3661 26.0095 38.4406 26.8898 38.4406 28.2667L38.418 28.2893Z" fill="black"/>
<path d="M65.8433 35.7382C65.8433 39.6432 65.8433 43.4805 65.8433 47.2952C65.8433 47.9273 65.753 48.5819 65.8433 49.2139C66.2947 51.9677 64.8952 53.5252 62.6154 54.6764C60.9451 55.5116 59.365 56.4822 57.7398 57.385C56.8144 57.8816 55.8889 58.3557 54.9634 58.8523C53.0448 59.8454 52.187 59.7326 50.4715 58.3331C49.9975 57.9494 49.4558 57.6785 48.7109 57.2045C49.0721 56.8885 49.3881 56.5273 49.7944 56.279C51.1261 55.4438 52.4805 54.6312 53.88 53.8638C55.4374 53.0286 57.0627 52.2611 58.6427 51.4711C60.2228 50.6811 61.0805 49.4396 61.0579 47.6564C61.0579 46.4375 61.0579 45.2186 61.0579 43.6611C59.365 44.6543 58.0333 45.4443 56.6789 46.1892C53.722 47.8144 50.7198 49.3945 47.7629 51.0197C46.6343 51.6291 45.4831 52.2386 44.4673 53.006C42.9098 54.2249 41.7586 53.0963 40.5397 52.4869C39.7271 52.0806 39.05 51.426 38.2599 50.952C38.0342 50.8165 37.6505 50.8617 37.3796 50.952C35.7093 51.5614 33.2263 50.8617 32.3686 49.3267C30.9691 46.7535 30.9465 44.7446 33.6552 42.8485C36.251 41.0427 39.9077 42.6002 40.5397 45.6475C40.9686 47.6338 42.6164 48.4916 44.4673 47.5435C46.8826 46.3021 49.3204 45.0832 51.6904 43.7514C54.512 42.1713 57.2658 40.4558 60.0422 38.8081C61.7803 37.7697 63.5183 36.754 65.2564 35.7382C65.3467 35.6705 65.5273 35.7382 65.8433 35.7382ZM38.576 46.5504C38.6662 45.0832 37.8311 44.3383 35.8447 44.09C34.9418 43.9771 33.6778 45.2637 33.61 46.3246C33.5423 47.7918 34.8515 49.259 36.2736 49.3042C37.6053 49.3493 38.4631 48.311 38.5534 46.5278L38.576 46.5504Z" fill="black"/>
<path d="M16.2519 64.7887C15.3039 64.2921 14.401 63.9309 13.5884 63.4118C11.3989 62.0349 9.25451 60.5677 7.08757 59.1908C5.93638 58.4685 4.80777 57.701 3.56629 57.1367C2.30225 56.5498 1.8508 55.534 1.8508 54.3603C1.8508 50.6133 1.94109 46.8663 2.09909 43.1419C2.18938 41.2007 3.85973 40.5686 5.30436 39.8463C5.73323 39.6432 6.18468 39.5077 6.83927 39.2594C6.83927 41.6747 6.88442 44.0222 6.83927 46.3697C6.8167 47.6338 6.34268 48.9204 6.52326 50.1167C6.72641 51.5388 6.4104 53.2768 8.12589 54.2249C9.27708 54.8569 10.3154 55.6695 11.4892 56.4595C12.7306 53.3671 12.1212 50.365 12.3018 47.4532C12.4823 44.5414 12.4598 41.607 12.3469 38.6726C12.2566 36.4605 13.3627 35.1287 15.2136 34.3838C16.6808 33.7969 17.6965 33.2778 17.9674 31.4269C18.2609 29.3728 21.8498 28.199 23.7459 29.2148C24.8068 29.8017 25.8 30.2757 26.2514 31.63C27.4478 35.1739 24.9874 38.3114 21.2404 37.86C18.6897 37.5439 17.2677 38.7628 17.1774 41.3361C17.1097 43.1193 17.1548 44.9025 17.0645 46.6857C16.8162 52.5997 16.5454 58.491 16.2745 64.7661L16.2519 64.7887ZM22.0079 35.7833C23.9942 35.6027 24.8294 34.745 24.6488 33.0069C24.5359 31.8783 22.8656 30.7497 21.4887 30.9077C20.4504 31.0206 19.2089 32.578 19.3217 33.5938C19.5023 35.0836 20.5406 35.9187 21.9853 35.7833H22.0079Z" fill="black"/>
<path d="M58.417 32.7361C58.417 30.9077 58.417 29.5985 58.417 28.2893C58.417 25.7838 58.417 23.2557 58.417 20.7502C58.417 18.8541 57.153 17.2289 55.3246 16.5969C55.1215 16.5292 54.9409 16.3937 54.7378 16.3035C53.5866 15.7166 53.0674 16.01 53.0674 17.3418C53.0674 22.556 52.9771 27.7702 53.1125 32.9618C53.1803 35.219 52.5482 36.8894 50.4039 37.6794C49.027 38.1986 48.4401 39.2595 48.1241 40.4332C47.5372 42.5776 44.3771 43.8191 42.1876 42.8485C40.2689 41.9907 39.84 40.5235 39.3435 38.9886C38.8243 37.3634 41.1267 34.4064 42.8873 34.2936C43.7451 34.2259 44.6254 34.2936 45.4831 34.2936C47.018 34.3613 47.9435 33.7067 48.0338 32.1718C48.2369 28.8762 48.3949 25.5581 48.4401 22.2625C48.4401 20.5019 48.1015 18.7413 48.1015 16.9806C48.1241 14.1817 48.3498 11.3601 48.4852 8.56116C48.5304 7.72599 48.711 7.3874 49.6364 7.95171C51.6002 9.08032 53.8574 9.82522 55.6181 11.2021C57.4916 12.6468 59.6585 13.3691 61.5997 14.6105C62.5252 15.1974 63.2024 15.9197 63.1798 17.2064C63.1121 21.1791 63.1346 25.1518 63.1798 29.1245C63.1798 29.9823 62.8864 30.5917 62.0738 30.9754C60.9677 31.472 59.8842 32.0363 58.4396 32.7361H58.417ZM44.1062 41.2233C45.3703 41.2233 46.6794 39.8689 46.6569 38.6049C46.6569 37.5891 45.2122 36.0994 44.1965 36.0542C43.1807 36.0091 41.3975 37.4988 41.3298 38.4243C41.2621 39.7109 42.7519 41.2233 44.1062 41.2233Z" fill="black"/>
<path d="M17.2904 15.6037C13.7917 17.2966 10.2704 18.8992 6.8394 20.7276C5.59792 21.3822 5.19162 22.8494 4.92075 24.1586C4.7176 25.1518 4.87561 26.2352 4.87561 27.4541C5.48506 27.3864 6.00423 27.4767 6.41053 27.2961C9.7738 25.5806 13.1145 23.7974 16.4552 22.0368C17.8095 21.3145 19.209 20.6373 20.5182 19.8473C22.2563 18.7864 23.9718 18.7864 25.5518 20.0278C26.545 20.7953 27.5382 20.6599 28.5991 20.5922C29.8631 20.5244 31.1272 20.3439 32.2332 21.2693C33.7004 22.5108 34.6259 24.0231 34.197 25.9644C33.881 27.3638 33.0233 28.4473 31.5109 29.0116C28.6894 30.0725 26.7933 29.3953 25.3938 26.5738C25.0778 25.9644 24.7167 24.926 24.2878 24.8809C23.114 24.7455 21.8274 24.8132 20.7214 25.1969C19.0059 25.8063 17.4032 26.6867 15.8006 27.5444C14.514 28.2442 13.3628 29.1696 12.0762 29.8242C9.02891 31.3817 5.91394 32.8489 2.8441 34.3612C1.94121 34.8127 1.08347 35.3093 0 35.8962C0 32.8715 0 30.1402 0 27.409C0 25.6709 0.022569 23.9329 0.0451413 22.1948C0.0451413 20.1407 0.767457 18.6735 2.77639 17.7255C5.03362 16.6871 7.13284 15.2651 9.32235 14.0913C10.4961 13.4593 11.7376 12.9401 13.0016 12.5338C13.4531 12.3984 14.1303 12.6241 14.5591 12.9176C15.5975 13.5722 16.5229 14.3622 17.5161 15.0845C17.4258 15.2651 17.3581 15.4231 17.2678 15.6037H17.2904ZM32.2332 25.0163C32.3009 23.5266 31.0369 22.3979 29.2537 22.3528C28.1025 22.3528 26.7482 23.8426 27.1093 25.3098C27.3125 26.1675 28.5088 27.1381 29.4117 27.3638C31.0143 27.7476 32.1429 26.5964 32.2107 24.9938L32.2332 25.0163Z" fill="black"/>
</svg>
